<svg width="20" height="20" viewBox="0 0 20 20" fill="none" xmlns="http://www.w3.org/2000/svg">
<path d="M6.59669 4.94677V4.2871C6.59669 2.82759 6.59669 1.64844 9.23536 1.64844H10.5547C13.1934 1.64844 13.1934 2.82759 13.1934 4.2871V4.94677M6.59669 18.1401H13.1934C16.5082 18.1401 17.1019 16.8125 17.275 15.1963L17.8935 8.59968C18.1161 6.58769 17.5389 4.94677 14.0179 4.94677H5.77211C2.25114 4.94677 1.67393 6.58769 1.89657 8.59968L2.515 15.1963C2.68817 16.8125 3.28187 18.1401 6.59669 18.1401Z" stroke="#F5F5F5" stroke-opacity="0.960784" stroke-width="1.5" stroke-miterlimit="10" stroke-linecap="round" stroke-linejoin="round"/>
<path d="M11.5442 11.5606V10.7195C11.5442 9.8949 11.5442 9.8949 10.7196 9.8949H9.07041C8.24583 9.8949 8.24583 9.8949 8.24583 10.7195V11.5688M11.5442 11.5606C11.5442 12.4594 11.5359 13.1932 9.89499 13.1932C8.26232 13.1932 8.24583 12.4676 8.24583 11.5688M11.5442 11.5606C13.8235 11.2768 15.9937 10.42 17.8522 9.07031M8.24583 11.5688C6.11015 11.3297 4.01571 10.5628 2.1604 9.29295" stroke="#F5F5F5" stroke-opacity="0.960784" stroke-width="1.5" stroke-miterlimit="10" stroke-linecap="round" stroke-linejoin="round"/>
</svg>
