<svg width="20" height="22" viewBox="0 0 20 22" fill="none" xmlns="http://www.w3.org/2000/svg">
<path d="M9.625 20.5714C11.1375 20.5714 12.4323 20.0328 13.5094 18.9558C14.5865 17.8787 15.125 16.5839 15.125 15.0714V9.57137C15.125 8.05888 14.5865 6.76408 13.5094 5.687C12.4323 4.60992 11.1375 4.07137 9.625 4.07137C8.1125 4.07137 6.81771 4.60992 5.74063 5.687C4.66354 6.76408 4.125 8.05888 4.125 9.57137V15.0714C4.125 16.5839 4.66354 17.8787 5.74063 18.9558C6.81771 20.0328 8.1125 20.5714 9.625 20.5714ZM7.2985 15.7589H11.9515V14.3839H7.2985V15.7589ZM7.2985 10.2589H11.9515V8.88387H7.2985V10.2589ZM9.625 21.9464C8.382 21.9464 7.23938 21.6411 6.19712 21.0306C5.15396 20.421 4.31887 19.5805 3.69187 18.5089H0V17.1339H3.09925C2.88933 16.4647 2.77888 15.7818 2.76787 15.0851C2.75596 14.3885 2.75 13.6964 2.75 13.0089H0V11.6339H2.75C2.75 10.928 2.74679 10.2272 2.74038 9.5315C2.73396 8.83483 2.85312 8.16062 3.09787 7.50887H0V6.13387H3.69187C4.03013 5.53621 4.44813 5.00408 4.94588 4.5375C5.44454 4.07 6.01013 3.6905 6.64263 3.399L4.17862 0.92125L5.0985 0L8.00113 2.904C8.53738 2.75092 9.07592 2.67438 9.61675 2.67438C10.1576 2.67438 10.6961 2.75092 11.2324 2.904L14.2051 0.0013749L15.125 0.92125L12.6445 3.40038C13.277 3.69187 13.8362 4.06954 14.322 4.53337C14.8078 4.99813 15.2203 5.53208 15.5595 6.13525H19.25V7.51025H16.1508C16.3964 8.16292 16.5156 8.83712 16.5083 9.53288C16.5028 10.2286 16.5 10.929 16.5 11.6339H19.25V13.0089H16.5C16.5 13.6964 16.4945 14.3885 16.4835 15.0851C16.4725 15.7818 16.3616 16.4647 16.1508 17.1339H19.25V18.5089H15.5595C14.9316 19.5814 14.096 20.4224 13.0529 21.032C12.0097 21.6416 10.8671 21.9464 9.625 21.9464Z" fill="white"/>
</svg>
