<svg width="19" height="19" viewBox="0 0 19 19" fill="none" xmlns="http://www.w3.org/2000/svg">
<path d="M14.7484 5.66077C14.7801 6.14369 14.7405 6.68994 14.6455 7.29952L14.0676 11.0124C13.5768 14.1079 12.1438 15.1529 9.04842 14.6699L5.3355 14.0841C4.26675 13.9179 3.44342 13.6329 2.84175 13.2054C1.69383 12.4058 1.36133 11.0916 1.678 9.06494L2.26383 5.35202C2.75467 2.25661 4.18758 1.21161 7.283 1.69452L10.9959 2.28036C13.4818 2.66827 14.6455 3.68161 14.7484 5.66077Z" stroke="#F5F5F5" stroke-opacity="0.960784" stroke-width="1.1875" stroke-linecap="round" stroke-linejoin="round"/>
<path d="M16.2289 10.6631L15.0414 14.2335C14.0518 17.2102 12.4685 18.0018 9.4918 17.0123L5.92138 15.8248C4.1243 15.231 3.1268 14.4077 2.8418 13.2043C3.44346 13.6318 4.2668 13.9168 5.33555 14.0831L9.04846 14.6689C12.1439 15.1518 13.5768 14.1068 14.0676 11.0114L14.6455 7.29852C14.7405 6.68893 14.7801 6.14268 14.7485 5.65977C16.6405 6.66518 17.0522 8.18518 16.2289 10.6631ZM6.52305 7.10852C6.70394 7.10852 6.88307 7.07289 7.05019 7.00366C7.21732 6.93443 7.36917 6.83297 7.49709 6.70505C7.625 6.57714 7.72647 6.42529 7.79569 6.25816C7.86492 6.09104 7.90055 5.91191 7.90055 5.73102C7.90055 5.55012 7.86492 5.371 7.79569 5.20387C7.72647 5.03674 7.625 4.88489 7.49709 4.75698C7.36917 4.62906 7.21732 4.5276 7.05019 4.45837C6.88307 4.38915 6.70394 4.35352 6.52305 4.35352C6.15771 4.35352 5.80734 4.49864 5.54901 4.75698C5.29068 5.01531 5.14555 5.36568 5.14555 5.73102C5.14555 6.09635 5.29068 6.44672 5.54901 6.70505C5.80734 6.96339 6.15771 7.10852 6.52305 7.10852Z" stroke="#F5F5F5" stroke-opacity="0.960784" stroke-width="1.1875" stroke-linecap="round" stroke-linejoin="round"/>
</svg>
