<svg width="13" height="12" viewBox="0 0 13 12" fill="none" xmlns="http://www.w3.org/2000/svg">
<path d="M12.532 10.4166L7.20607 0.525937C6.82857 -0.175313 5.82295 -0.175313 5.44513 0.525937L0.119509 10.4166C0.0375445 10.5688 -0.00354888 10.7397 0.000240217 10.9125C0.00402932 11.0854 0.0525715 11.2543 0.141129 11.4028C0.229686 11.5513 0.355232 11.6743 0.505512 11.7598C0.655793 11.8453 0.825674 11.8904 0.998572 11.8906H11.6514C11.8244 11.8906 11.9945 11.8458 12.145 11.7604C12.2955 11.675 12.4212 11.552 12.51 11.4035C12.5987 11.2549 12.6474 11.0859 12.6513 10.9129C12.6551 10.7399 12.614 10.5689 12.532 10.4166ZM6.32576 10.3594C6.20215 10.3594 6.08131 10.3227 5.97853 10.254C5.87575 10.1854 5.79564 10.0878 5.74833 9.97355C5.70103 9.85935 5.68865 9.73368 5.71277 9.61244C5.73688 9.49121 5.79641 9.37984 5.88382 9.29243C5.97123 9.20502 6.08259 9.1455 6.20383 9.12138C6.32507 9.09727 6.45073 9.10964 6.56494 9.15695C6.67914 9.20426 6.77675 9.28436 6.84543 9.38714C6.9141 9.48992 6.95076 9.61076 6.95076 9.73438C6.95076 9.90014 6.88491 10.0591 6.7677 10.1763C6.65049 10.2935 6.49152 10.3594 6.32576 10.3594ZM7.00451 4.07344L6.82513 7.88594C6.82513 8.01855 6.77246 8.14572 6.67869 8.23949C6.58492 8.33326 6.45774 8.38594 6.32513 8.38594C6.19253 8.38594 6.06535 8.33326 5.97158 8.23949C5.87781 8.14572 5.82513 8.01855 5.82513 7.88594L5.64576 4.075C5.64173 3.98393 5.65607 3.89299 5.68794 3.80758C5.7198 3.72218 5.76854 3.64407 5.83124 3.5779C5.89393 3.51173 5.96931 3.45886 6.05288 3.42245C6.13644 3.38603 6.22648 3.36681 6.31763 3.36594H6.3242C6.41597 3.36589 6.5068 3.38444 6.59121 3.42046C6.67561 3.45648 6.75185 3.50923 6.81531 3.57552C6.87877 3.64181 6.92814 3.72028 6.96044 3.80618C6.99275 3.89208 7.00731 3.98363 7.00326 4.07531L7.00451 4.07344Z" fill="#E8B931"/>
</svg>
