<svg width="24" height="24" viewBox="0 0 24 24" fill="none" xmlns="http://www.w3.org/2000/svg">
<path d="M12 8V2M12 2L10 4M12 2L14 4" stroke="#F5F5F5" stroke-opacity="0.960784" stroke-width="1.5" stroke-linecap="round" stroke-linejoin="round"/>
<path d="M5 11.9991V9.99906C5 7.98906 5 6.32906 8 6.03906M19 11.9991V9.99906C19 7.98906 19 6.32906 16 6.03906M7 11.9991C3 11.9991 3 13.7891 3 15.9991V16.9991C3 19.7591 3 21.9991 8 21.9991H16C20 21.9991 21 19.7591 21 16.9991V15.9991C21 13.7891 21 11.9991 17 11.9991C16 11.9991 15.72 12.2091 15.2 12.5991L14.18 13.6791C13.8996 13.9773 13.561 14.2151 13.1853 14.3775C12.8095 14.54 12.4044 14.6239 11.995 14.6239C11.5856 14.6239 11.1805 14.54 10.8047 14.3775C10.429 14.2151 10.0904 13.9773 9.81 13.6791L8.8 12.5991C8.28 12.2091 8 11.9991 7 11.9991Z" stroke="#F5F5F5" stroke-opacity="0.960784" stroke-width="1.5" stroke-miterlimit="10" stroke-linecap="round" stroke-linejoin="round"/>
</svg>
