<svg width="27" height="27" viewBox="0 0 27 27" fill="none" xmlns="http://www.w3.org/2000/svg">
<path d="M7.3125 12.375H4.5V7.59375C4.5 6.80625 5.11875 6.1875 5.90625 6.1875C6.69375 6.1875 7.3125 6.80625 7.3125 7.59375V12.375ZM11.25 12.375H8.4375V4.21875C8.4375 3.43125 9.05625 2.8125 9.84375 2.8125C10.6312 2.8125 11.25 3.43125 11.25 4.21875V12.375ZM15.1875 12.375H12.375V3.09375C12.375 2.30625 12.9937 1.6875 13.7812 1.6875C14.5688 1.6875 15.1875 2.30625 15.1875 3.09375V12.375ZM19.125 12.375H16.3125V4.78125C16.3125 3.99375 16.9312 3.375 17.7188 3.375C18.5063 3.375 19.125 3.99375 19.125 4.78125V12.375ZM18.0562 24.1875L15.2438 21.375L20.8687 15.75C21.6562 14.9625 22.8937 14.9625 23.625 15.75C24.4125 16.5375 24.4125 17.775 23.625 18.5063L18.0562 24.1875Z" fill="#FFCC80"/>
<path d="M16.3125 11.8125C16.3125 12.15 16.0875 12.375 15.75 12.375C15.4125 12.375 15.1875 12.15 15.1875 11.8125H12.375C12.375 12.15 12.15 12.375 11.8125 12.375C11.475 12.375 11.25 12.15 11.25 11.8125H8.4375C8.4375 12.15 8.2125 12.375 7.875 12.375C7.5375 12.375 7.3125 12.15 7.3125 11.8125H4.5V20.8125C4.5 23.2875 6.525 25.3125 9 25.3125H15.3C17.3812 25.3125 19.125 23.625 19.125 21.4875V11.8125H16.3125Z" fill="#FFCC80"/>
<path d="M8.66992 16.2959L10.0615 14.9043L16.0269 20.8696L14.6352 22.2612L8.66992 16.2959Z" fill="#F44336"/>
<path d="M14.6216 14.9082L16.0137 16.2998L10.0484 22.2651L8.65625 20.8735L14.6216 14.9082Z" fill="#F44336"/>
</svg>
