<svg width="16" height="12" viewBox="0 0 16 12" fill="none" xmlns="http://www.w3.org/2000/svg">
<path d="M13.2588 0.993474C12.2304 0.522673 11.1448 0.188671 10.0296 0C9.87704 0.272791 9.73896 0.553456 9.61599 0.840822C8.42813 0.661826 7.22016 0.661826 6.0323 0.840822C5.90927 0.553486 5.7712 0.272824 5.61866 0C4.50279 0.190265 3.41645 0.52506 2.38706 0.995937C0.343461 4.01945 -0.210527 6.96786 0.0664668 9.87442C1.26325 10.7586 2.60279 11.4311 4.02687 11.8626C4.34753 11.4313 4.63127 10.9738 4.87508 10.4949C4.41199 10.3219 3.96502 10.1085 3.53936 9.85719C3.65139 9.77594 3.76095 9.69222 3.86683 9.61097C5.10542 10.1934 6.45728 10.4955 7.82599 10.4955C9.19471 10.4955 10.5466 10.1934 11.7852 9.61097C11.8923 9.69838 12.0018 9.78209 12.1126 9.85719C11.6861 10.1089 11.2384 10.3227 10.7744 10.4961C11.018 10.9748 11.3017 11.432 11.6227 11.8626C13.0479 11.4329 14.3885 10.7607 15.5855 9.87565C15.9105 6.50498 15.0303 3.58365 13.2588 0.993474ZM5.22594 8.08691C4.45405 8.08691 3.81635 7.38643 3.81635 6.52468C3.81635 5.66293 4.43189 4.95629 5.22348 4.95629C6.01507 4.95629 6.64785 5.66293 6.63431 6.52468C6.62076 7.38643 6.01261 8.08691 5.22594 8.08691ZM10.426 8.08691C9.65292 8.08691 9.01768 7.38643 9.01768 6.52468C9.01768 5.66293 9.63323 4.95629 10.426 4.95629C11.2189 4.95629 11.8467 5.66293 11.8332 6.52468C11.8196 7.38643 11.2127 8.08691 10.426 8.08691Z" fill="#5865F2"/>
</svg>
