<svg width="20" height="20" viewBox="0 0 20 20" fill="none" xmlns="http://www.w3.org/2000/svg">
<path d="M8.82276 1.60352H7.21848C3.20779 1.60352 1.60352 3.20779 1.60352 7.21848V12.0313C1.60352 16.042 3.20779 17.6463 7.21848 17.6463H12.0313C16.042 17.6463 17.6463 16.042 17.6463 12.0313V10.427" stroke="#F5F5F5" stroke-opacity="0.960784" stroke-width="1.20321" stroke-linecap="round" stroke-linejoin="round"/>
<path d="M12.8664 2.42205L6.54551 8.74289C6.30487 8.98353 6.06423 9.4568 6.0161 9.80171L5.67118 12.2161C5.54284 13.0905 6.16049 13.7001 7.03482 13.5798L9.44925 13.2349C9.78615 13.1867 10.2594 12.9461 10.5081 12.7055L16.8289 6.38461C17.9198 5.2937 18.4332 4.02632 16.8289 2.42205C15.2246 0.817769 13.9573 1.33114 12.8664 2.42205Z" stroke="#F5F5F5" stroke-opacity="0.960784" stroke-width="1.20321" stroke-miterlimit="10" stroke-linecap="round" stroke-linejoin="round"/>
<path d="M11.959 3.32812C12.225 4.27262 12.729 5.13299 13.4229 5.82682C14.1167 6.52065 14.9771 7.0247 15.9215 7.29069" stroke="#F5F5F5" stroke-opacity="0.960784" stroke-width="1.20321" stroke-miterlimit="10" stroke-linecap="round" stroke-linejoin="round"/>
</svg>
