<svg width="24" height="24" viewBox="0 0 24 24" fill="none" xmlns="http://www.w3.org/2000/svg">
<path d="M14.53 9.46984L9.47 14.5298C8.79901 13.8588 8.42204 12.9488 8.42204 11.9998C8.42204 11.53 8.51459 11.0647 8.6944 10.6306C8.87421 10.1965 9.13776 9.80208 9.47 9.46984C9.80225 9.13759 10.1967 8.87404 10.6308 8.69423C11.0649 8.51442 11.5301 8.42188 12 8.42188C12.9489 8.42188 13.859 8.79884 14.53 9.46984Z" stroke="#F5F5F5" stroke-opacity="0.960784" stroke-width="1.5" stroke-linecap="round" stroke-linejoin="round"/>
<path d="M17.82 5.77047C16.07 4.45047 14.07 3.73047 12 3.73047C8.47 3.73047 5.18 5.81047 2.89 9.41047C1.99 10.8205 1.99 13.1905 2.89 14.6005C3.68 15.8405 4.6 16.9105 5.6 17.7705M8.42 19.5305C9.56 20.0105 10.77 20.2705 12 20.2705C15.53 20.2705 18.82 18.1905 21.11 14.5905C22.01 13.1805 22.01 10.8105 21.11 9.40047C20.78 8.88047 20.42 8.39047 20.05 7.93047" stroke="#F5F5F5" stroke-opacity="0.960784" stroke-width="1.5" stroke-linecap="round" stroke-linejoin="round"/>
<path d="M15.51 12.7C15.3745 13.3976 15.0337 14.0387 14.5312 14.5412C14.0287 15.0437 13.3876 15.3845 12.69 15.52M9.47 14.53L2 22M22 2L14.53 9.47" stroke="#F5F5F5" stroke-opacity="0.960784" stroke-width="1.5" stroke-linecap="round" stroke-linejoin="round"/>
</svg>
