<svg width="16" height="16" viewBox="0 0 16 16" fill="none" xmlns="http://www.w3.org/2000/svg">
<path d="M15.05 7.52502C15.05 3.36906 11.681 0 7.52502 0C3.36906 0 0 3.36906 0 7.52502C0 11.2809 2.75178 14.3941 6.34924 14.9586V9.70022H4.43859V7.52502H6.34924V5.86717C6.34924 3.98121 7.4727 2.93946 9.19155 2.93946C10.0149 2.93946 10.876 3.08643 10.876 3.08643V4.93829H9.92715C8.9924 4.93829 8.70081 5.5184 8.70081 6.11349V7.52502H10.7878L10.4542 9.70022H8.70081V14.9586C12.2983 14.3941 15.05 11.2811 15.05 7.52502Z" fill="#1877F2"/>
<path d="M10.4541 9.70021L10.7877 7.52501H8.7007V6.11348C8.7007 5.51839 8.99229 4.93829 9.92704 4.93829H10.8759V3.08643C10.8759 3.08643 10.0148 2.93945 9.19144 2.93945C7.47259 2.93945 6.34913 3.9812 6.34913 5.86716V7.52501H4.43848V9.70021H6.34913V14.9586C6.73229 15.0187 7.12485 15.05 7.52491 15.05C7.92497 15.05 8.31754 15.0187 8.7007 14.9586V9.70021H10.4541Z" fill="#333333"/>
</svg>
