<svg width="24" height="24" viewBox="0 0 24 24" fill="none" xmlns="http://www.w3.org/2000/svg">
<path d="M22 12C22 6.48 17.52 2 12 2C6.48 2 2 6.48 2 12C2 17.52 6.48 22 12 22" stroke="#F5F5F5" stroke-opacity="0.960784" stroke-width="1.5" stroke-linecap="round" stroke-linejoin="round"/>
<path d="M7.99959 3H8.99959C7.04962 8.84157 7.04962 15.1584 8.99959 21H7.99959M14.9996 3C15.9696 5.92 16.4596 8.96 16.4596 12" stroke="#F5F5F5" stroke-opacity="0.960784" stroke-width="1.5" stroke-linecap="round" stroke-linejoin="round"/>
<path d="M3 15.9996V14.9996C5.92 15.9696 8.96 16.4596 12 16.4596M3 8.99959C8.84157 7.04962 15.1584 7.04962 21 8.99959M19.5 14.6996C19.13 14.5896 18.71 14.5196 18.25 14.5196C17.2581 14.5196 16.3068 14.9136 15.6054 15.615C14.904 16.3164 14.51 17.2677 14.51 18.2596C14.51 19.2515 14.904 20.2028 15.6054 20.9042C16.3068 21.6056 17.2581 21.9996 18.25 21.9996C20.31 21.9996 21.99 20.3196 21.99 18.2596C21.993 17.5188 21.7735 16.7942 21.36 16.1796M18.79 13.3696L20.04 14.7996L18.58 15.8596" stroke="#F5F5F5" stroke-opacity="0.960784" stroke-width="1.5" stroke-linecap="round" stroke-linejoin="round"/>
</svg>
