<svg width="16" height="16" viewBox="0 0 16 16" fill="none" xmlns="http://www.w3.org/2000/svg">
<mask id="mask0_2580_41447" style="mask-type:alpha" maskUnits="userSpaceOnUse" x="0" y="0" width="16" height="16">
<path d="M4.4085 0.0521097C3.60783 0.0899003 3.06097 0.218148 2.58309 0.405397C2.0884 0.59825 1.66905 0.856701 1.25189 1.27557C0.83424 1.69469 0.577751 2.11478 0.386366 2.60997C0.201066 3.08906 0.075501 3.63618 0.0401439 4.43735C0.00503967 5.23999 -0.0030106 5.496 0.000902415 7.53941C0.00480038 9.58257 0.0138184 9.83906 0.0520936 10.6419C0.0903674 11.4424 0.218136 11.989 0.405384 12.4671C0.598481 12.9618 0.856667 13.381 1.27578 13.7984C1.69465 14.2158 2.11498 14.472 2.6104 14.6637C3.089 14.8487 3.63636 14.9748 4.43728 15.0099C5.23991 15.0452 5.49615 15.053 7.53905 15.0491C9.58291 15.0452 9.83916 15.0362 10.6418 14.9982C11.4425 14.9599 11.9888 14.8316 12.4672 14.6449C12.9619 14.4513 13.3812 14.1936 13.7984 13.7745C14.2156 13.3556 14.4721 12.9353 14.6635 12.4398C14.8488 11.9612 14.9748 11.4139 15.0097 10.6134C15.0448 9.81029 15.0531 9.5538 15.0492 7.51063C15.0453 5.46722 15.036 5.21122 14.998 4.40883C14.9599 3.60766 14.8317 3.06127 14.6447 2.5829C14.4513 2.08821 14.1934 1.66933 13.7745 1.25168C13.3556 0.834513 12.9353 0.577529 12.4399 0.386625C11.9611 0.201325 11.4139 0.0750264 10.613 0.0404052C9.81038 0.00480888 9.55415 -0.00298855 7.51052 0.000910917C5.46738 0.00481038 5.21114 0.0135906 4.4085 0.0521097ZM4.49629 13.6555C3.76265 13.6235 3.36427 13.5016 3.09876 13.3995C2.74718 13.2634 2.4963 13.1003 2.23225 12.8382C1.9687 12.5751 1.80509 12.325 1.66783 11.9741C1.56469 11.7086 1.4406 11.3107 1.40622 10.5771C1.36892 9.78396 1.36039 9.54599 1.35673 7.53672C1.35283 5.52794 1.36013 5.28997 1.39476 4.49612C1.42621 3.76296 1.54886 3.36408 1.65076 3.09881C1.7868 2.74674 1.94942 2.49634 2.21202 2.2323C2.47508 1.96825 2.72523 1.80513 3.07632 1.66787C3.34159 1.56424 3.7395 1.44112 4.47288 1.40626C5.26649 1.3687 5.50419 1.36066 7.51296 1.35676C9.5222 1.35285 9.76016 1.35993 10.554 1.3948C11.2871 1.42673 11.686 1.54816 11.9511 1.6508C12.3029 1.78685 12.5537 1.94898 12.8176 2.21206C13.0814 2.47514 13.245 2.7248 13.3822 3.07662C13.4858 3.34116 13.609 3.73955 13.6436 4.47271C13.6814 5.26632 13.6899 5.50428 13.6936 7.51307C13.6975 9.52235 13.6902 9.7603 13.6553 10.5537C13.6234 11.2873 13.5017 11.686 13.3993 11.9517C13.2632 12.303 13.1006 12.5539 12.8378 12.818C12.575 13.0811 12.3248 13.2451 11.9735 13.3824C11.7087 13.4858 11.3103 13.6092 10.5774 13.644C9.78382 13.6813 9.5461 13.6899 7.5366 13.6935C5.52784 13.6974 5.29013 13.6899 4.49629 13.6555ZM10.6308 3.50257C10.6318 4.00093 11.037 4.40444 11.5354 4.40347C12.0339 4.40249 12.4375 3.99752 12.4367 3.49916C12.4357 3.0008 12.0305 2.59705 11.5319 2.59802C11.0334 2.599 10.6298 3.00421 10.6308 3.50257ZM3.66124 7.53233C3.66538 9.66644 5.39863 11.3926 7.53222 11.3885C9.66605 11.3844 11.3932 9.65157 11.3891 7.51746C11.3849 5.38409 9.65143 3.6569 7.51735 3.66105C5.38375 3.66519 3.65709 5.39872 3.66124 7.53233ZM5.01657 7.52965C5.01413 6.14454 6.13518 5.01934 7.52003 5.0169C8.90513 5.01422 10.0306 6.13479 10.0332 7.52014C10.0359 8.9055 8.91487 10.0305 7.52954 10.0331C6.14469 10.0358 5.01925 8.91501 5.01657 7.52965Z" fill="#000008"/>
</mask>
<g mask="url(#mask0_2580_41447)">
<rect x="-0.630859" y="-0.630859" width="16.3857" height="16.3857" fill="url(#paint0_radial_2580_41447)"/>
<g filter="url(#filter0_f_2580_41447)">
<ellipse cx="2.43585" cy="-1.25483" rx="9.45331" ry="6.61732" transform="rotate(-14.9317 2.43585 -1.25483)" fill="#7334FF"/>
</g>
<g filter="url(#filter1_f_2580_41447)">
<circle cx="15.2299" cy="-0.525001" r="8.92812" fill="#B202F5"/>
</g>
<g filter="url(#filter2_f_2580_41447)">
<circle cx="2.52028" cy="14.073" r="5.04176" fill="#FFB401"/>
</g>
</g>
<defs>
<filter id="filter0_f_2580_41447" x="-13.7898" y="-15.032" width="32.4518" height="27.5543" filterUnits="userSpaceOnUse" color-interpolation-filters="sRGB">
<feFlood flood-opacity="0" result="BackgroundImageFix"/>
<feBlend mode="normal" in="SourceGraphic" in2="BackgroundImageFix" result="shape"/>
<feGaussianBlur stdDeviation="3.46621" result="effect1_foregroundBlur_2580_41447"/>
</filter>
<filter id="filter1_f_2580_41447" x="-2.10118" y="-17.8561" width="34.6623" height="34.6614" filterUnits="userSpaceOnUse" color-interpolation-filters="sRGB">
<feFlood flood-opacity="0" result="BackgroundImageFix"/>
<feBlend mode="normal" in="SourceGraphic" in2="BackgroundImageFix" result="shape"/>
<feGaussianBlur stdDeviation="4.20147" result="effect1_foregroundBlur_2580_41447"/>
</filter>
<filter id="filter2_f_2580_41447" x="-9.24384" y="2.3089" width="23.5287" height="23.5287" filterUnits="userSpaceOnUse" color-interpolation-filters="sRGB">
<feFlood flood-opacity="0" result="BackgroundImageFix"/>
<feBlend mode="normal" in="SourceGraphic" in2="BackgroundImageFix" result="shape"/>
<feGaussianBlur stdDeviation="3.36118" result="effect1_foregroundBlur_2580_41447"/>
</filter>
<radialGradient id="paint0_radial_2580_41447" cx="0" cy="0" r="1" gradientUnits="userSpaceOnUse" gradientTransform="translate(5.88142 15.0196) rotate(-61.8868) scale(8.69334)">
<stop stop-color="#FFD502"/>
<stop offset="0.869374" stop-color="#FF1154"/>
</radialGradient>
</defs>
</svg>
