<svg width="24" height="24" viewBox="0 0 24 24" fill="none" xmlns="http://www.w3.org/2000/svg">
<path d="M6.88999 17.4903L9.18999 19.7903M19.79 14.9303C18.8135 15.9044 17.5895 16.5934 16.2502 16.9229C14.9109 17.2525 13.507 17.2101 12.19 16.8003L7.47999 21.5003C7.13999 21.8503 6.46999 22.0603 5.98999 21.9903L3.80999 21.6903C3.08999 21.5903 2.41999 20.9103 2.30999 20.1903L2.00999 18.0103C1.93999 17.5303 2.16999 16.8603 2.49999 16.5203L7.19999 11.8203C6.39999 9.22031 7.01999 6.27031 9.07999 4.22031C12.03 1.27031 16.82 1.27031 19.78 4.22031C22.74 7.17031 22.74 11.9803 19.79 14.9303Z" stroke="#F5F5F5" stroke-opacity="0.960784" stroke-width="1.5" stroke-miterlimit="10" stroke-linecap="round" stroke-linejoin="round"/>
<path d="M14.5 11C14.8978 11 15.2794 10.842 15.5607 10.5607C15.842 10.2794 16 9.89782 16 9.5C16 9.10218 15.842 8.72064 15.5607 8.43934C15.2794 8.15804 14.8978 8 14.5 8C14.1022 8 13.7206 8.15804 13.4393 8.43934C13.158 8.72064 13 9.10218 13 9.5C13 9.89782 13.158 10.2794 13.4393 10.5607C13.7206 10.842 14.1022 11 14.5 11Z" stroke="#F5F5F5" stroke-opacity="0.960784" stroke-width="1.5" stroke-linecap="round" stroke-linejoin="round"/>
</svg>
