<svg width="17" height="15" viewBox="0 0 17 15" fill="none" xmlns="http://www.w3.org/2000/svg">
<path d="M15.9796 12.4915C15.721 12.494 15.4739 12.5988 15.2923 12.783C15.1108 12.9672 15.0095 13.2158 15.0108 13.4744C15.012 13.7331 15.1156 13.9807 15.299 14.1632C15.4823 14.3456 15.7304 14.448 15.9891 14.448C16.2477 14.448 16.4958 14.3456 16.6791 14.1632C16.8625 13.9807 16.9661 13.7331 16.9673 13.4744C16.9686 13.2158 16.8674 12.9672 16.6858 12.783C16.5042 12.5988 16.2571 12.494 15.9985 12.4915H15.9796ZM15.9796 14.336C15.81 14.3389 15.6433 14.2913 15.5007 14.1994C15.3581 14.1075 15.2459 13.9754 15.1784 13.8197C15.1109 13.6641 15.091 13.4919 15.1213 13.325C15.1517 13.1581 15.2308 13.0039 15.3488 12.8819C15.4667 12.76 15.6182 12.6757 15.784 12.6399C15.9499 12.604 16.1226 12.6181 16.2804 12.6804C16.4382 12.7427 16.574 12.8504 16.6706 12.9899C16.7672 13.1294 16.8203 13.2944 16.8231 13.464V13.4784C16.8278 13.701 16.744 13.9163 16.59 14.077C16.4361 14.2378 16.2246 14.3308 16.002 14.3356H15.9799M12.2243 12.2242H10.0985V8.89515C10.0985 8.1013 10.0844 7.07938 8.99292 7.07938C7.88575 7.07938 7.71635 7.94431 7.71635 8.83736V12.224H5.59057V5.37809H7.63132V6.31366H7.65988C7.86411 5.96446 8.15923 5.6772 8.51381 5.48246C8.86838 5.28772 9.26914 5.1928 9.67339 5.20781C11.828 5.20781 12.2252 6.62499 12.2252 8.46867L12.2243 12.2242ZM3.19199 4.44231C2.948 4.44235 2.70948 4.37004 2.50659 4.23453C2.3037 4.09901 2.14555 3.90638 2.05214 3.68098C1.95873 3.45558 1.93426 3.20755 1.98181 2.96824C2.02937 2.72893 2.14682 2.5091 2.31931 2.33655C2.4918 2.16399 2.71159 2.04646 2.95088 1.99882C3.19017 1.95118 3.43822 1.97556 3.66365 2.06889C3.88908 2.16222 4.08177 2.3203 4.21735 2.52315C4.35294 2.72599 4.42533 2.96448 4.42538 3.20847C4.42541 3.37047 4.39353 3.53089 4.33156 3.68057C4.2696 3.83025 4.17875 3.96626 4.06422 4.08083C3.94969 4.1954 3.81371 4.2863 3.66405 4.34832C3.5144 4.41034 3.35399 4.44228 3.19199 4.44231ZM4.25487 12.2242H2.12688V5.37809H4.25487V12.2242ZM13.2841 0.000977094H1.05868C0.781197 -0.0021543 0.513823 0.105006 0.315309 0.298911C0.116796 0.492816 0.00338652 0.7576 0 1.03508V13.3112C0.00327062 13.5889 0.11661 13.8538 0.315116 14.0479C0.513623 14.242 0.78106 14.3494 1.05868 14.3464H13.2841C13.5623 14.3499 13.8305 14.2429 14.0298 14.0488C14.2291 13.8547 14.3432 13.5894 14.347 13.3112V1.03419C14.343 0.756164 14.2289 0.491079 14.0296 0.297179C13.8303 0.103279 13.5621 -0.00357553 13.2841 9.13524e-05M16.1349 13.5318C16.1713 13.5322 16.2074 13.525 16.2409 13.5109C16.2744 13.4967 16.3047 13.4758 16.3298 13.4494C16.355 13.4231 16.3744 13.3919 16.387 13.3577C16.3995 13.3235 16.4049 13.2871 16.4028 13.2508C16.4028 13.0515 16.2826 12.9563 16.0359 12.9563H15.6373V13.9997H15.7872V13.5449H15.9715L15.9757 13.5504L16.2615 13.9997H16.4219L16.1143 13.5347L16.1349 13.5318ZM15.9615 13.4273H15.7877V13.0745H16.008C16.1218 13.0745 16.2516 13.0931 16.2516 13.2421C16.2516 13.4135 16.1203 13.4273 15.9606 13.4273" fill="#2867B2"/>
</svg>
