<svg width="46" height="46" viewBox="0 0 46 46" fill="none" xmlns="http://www.w3.org/2000/svg">
<path d="M14.7235 12.1107C13.3292 13.4773 12.2188 15.1061 11.4562 16.9033C10.6936 18.7006 10.2938 20.6308 10.2797 22.5831C10.2471 26.5258 11.7818 30.32 14.5462 33.1313C17.3107 35.9426 21.0785 37.5408 25.0212 37.5744C28.9656 37.6071 32.7617 36.073 35.5759 33.3091C38.3902 30.5453 39.9926 26.7775 40.0312 22.8332C40.0589 18.8884 38.5198 15.0939 35.752 12.2831C32.9841 9.47226 29.2139 7.87485 25.2692 7.84171" stroke="white" stroke-width="3.75" stroke-miterlimit="10" stroke-linecap="round"/>
<path d="M5.42217 13.3918L12.6706 11.6714C13.3131 11.5187 13.99 11.6271 14.5527 11.9728C15.1154 12.3185 15.518 12.8733 15.6721 13.5154L17.3886 20.7845" stroke="white" stroke-width="2.8125" stroke-linecap="round" stroke-linejoin="round"/>
</svg>
