<svg width="24" height="24" viewBox="0 0 24 24" fill="none" xmlns="http://www.w3.org/2000/svg">
<path d="M2 11V9C2 5.5 4 4 7 4H17C20 4 22 5.5 22 9V15C22 18.5 20 20 17 20H12" stroke="#F5F5F5" stroke-opacity="0.960784" stroke-width="1.5" stroke-miterlimit="10" stroke-linecap="round" stroke-linejoin="round"/>
<path d="M18.5 9.5V14.5M2 15.5H7.34C7.98 15.5 8.5 16.02 8.5 16.66V17.94M12 14.5C12.663 14.5 13.2989 14.2366 13.7678 13.7678C14.2366 13.2989 14.5 12.663 14.5 12C14.5 11.337 14.2366 10.7011 13.7678 10.2322C13.2989 9.76339 12.663 9.5 12 9.5C11.337 9.5 10.7011 9.76339 10.2322 10.2322C9.76339 10.7011 9.5 11.337 9.5 12C9.5 12.663 9.76339 13.2989 10.2322 13.7678C10.7011 14.2366 11.337 14.5 12 14.5Z" stroke="#F5F5F5" stroke-opacity="0.960784" stroke-width="1.5" stroke-miterlimit="10" stroke-linecap="round" stroke-linejoin="round"/>
<path d="M3.22 14.2793L2 15.4993L3.22 16.7193M8.5 20.7793H3.16C2.52 20.7793 2 20.2593 2 19.6193V18.3393" stroke="#F5F5F5" stroke-opacity="0.960784" stroke-width="1.5" stroke-miterlimit="10" stroke-linecap="round" stroke-linejoin="round"/>
<path d="M7.28125 22.0005L8.50125 20.7805L7.28125 19.5605" stroke="#F5F5F5" stroke-opacity="0.960784" stroke-width="1.5" stroke-miterlimit="10" stroke-linecap="round" stroke-linejoin="round"/>
</svg>
