<svg width="24" height="24" viewBox="0 0 24 24" fill="none" xmlns="http://www.w3.org/2000/svg">
<path d="M18.4108 18.0907L15.5908 20.9107M18.4108 20.9107L15.5908 18.0907M12.0008 21.8107C10.1808 21.8107 8.37078 21.3507 6.99078 20.4307C4.57078 18.8107 4.57078 16.1707 6.99078 14.5607C9.74078 12.7207 14.2508 12.7207 17.0008 14.5607M12.1608 10.8707C12.0608 10.8607 11.9408 10.8607 11.8308 10.8707C10.683 10.8318 9.59542 10.3476 8.79841 9.52068C8.0014 8.6938 7.55752 7.58917 7.56078 6.44072C7.56078 3.99072 9.54078 2.00072 12.0008 2.00072C12.5832 1.99022 13.162 2.09453 13.7041 2.3077C14.2462 2.52087 14.741 2.83874 15.1602 3.24313C15.5795 3.64753 15.915 4.13055 16.1476 4.66461C16.3802 5.19867 16.5053 5.77331 16.5158 6.35572C16.5263 6.93813 16.422 7.51691 16.2088 8.05901C15.9956 8.60111 15.6778 9.09592 15.2734 9.51517C14.869 9.93443 14.386 10.2699 13.8519 10.5025C13.3178 10.7351 12.7432 10.8602 12.1608 10.8707Z" stroke="#F5F5F5" stroke-opacity="0.960784" stroke-width="1.5" stroke-linecap="round" stroke-linejoin="round"/>
</svg>
