<svg width="20" height="20" viewBox="0 0 20 20" fill="none" xmlns="http://www.w3.org/2000/svg">
<path d="M9.99587 10.5407C9.93015 10.5325 9.86365 10.5325 9.79793 10.5407C9.0985 10.5172 8.43562 10.2227 7.94931 9.71946C7.463 9.21622 7.19135 8.54365 7.19174 7.84383C7.19174 6.35105 8.39587 5.13868 9.8969 5.13868C10.6057 5.13745 11.2866 5.41481 11.7928 5.91097C12.299 6.40713 12.59 7.08234 12.603 7.79104C12.616 8.49973 12.3499 9.18515 11.8622 9.69952C11.3745 10.2139 10.7043 10.516 9.99587 10.5407ZM15.4557 15.984C13.94 17.3771 11.9555 18.1485 9.8969 18.1449C7.75257 18.1449 5.80618 17.3284 4.33813 15.984C4.42061 15.2088 4.91545 14.45 5.79793 13.8562C8.05772 12.3552 11.7526 12.3552 13.9959 13.8562C14.8783 14.45 15.3732 15.2088 15.4557 15.984Z" stroke="#F5F5F5" stroke-opacity="0.960784" stroke-width="1.23711" stroke-linecap="round" stroke-linejoin="round"/>
<path d="M9.8969 18.1452C14.4519 18.1452 18.1443 14.4529 18.1443 9.89781C18.1443 5.34276 14.4519 1.65039 9.8969 1.65039C5.34185 1.65039 1.64948 5.34276 1.64948 9.89781C1.64948 14.4529 5.34185 18.1452 9.8969 18.1452Z" stroke="#F5F5F5" stroke-opacity="0.960784" stroke-width="1.23711" stroke-linecap="round" stroke-linejoin="round"/>
</svg>
