<svg width="22" height="22" viewBox="0 0 22 22" fill="none" xmlns="http://www.w3.org/2000/svg">
<path d="M20.75 20.75L18.75 18.75M10.25 19.75C11.4976 19.75 12.7329 19.5043 13.8855 19.0269C15.0381 18.5494 16.0854 17.8497 16.9675 16.9675C17.8497 16.0854 18.5494 15.0381 19.0269 13.8855C19.5043 12.7329 19.75 11.4976 19.75 10.25C19.75 9.00244 19.5043 7.7671 19.0269 6.61451C18.5494 5.46191 17.8497 4.41464 16.9675 3.53249C16.0854 2.65033 15.0381 1.95056 13.8855 1.47314C12.7329 0.995725 11.4976 0.75 10.25 0.75C7.73044 0.75 5.31408 1.75089 3.53249 3.53249C1.75089 5.31408 0.75 7.73044 0.75 10.25C0.75 12.7696 1.75089 15.1859 3.53249 16.9675C5.31408 18.7491 7.73044 19.75 10.25 19.75Z" stroke="white" stroke-width="1.5" stroke-linecap="round" stroke-linejoin="round"/>
</svg>
