<svg width="20" height="20" viewBox="0 0 20 20" fill="none" xmlns="http://www.w3.org/2000/svg">
<path d="M2.26295 5.68213L2.96587 5.86371L2.26295 5.68213ZM5.65076 2.49348L5.78751 3.20649L5.65076 2.49348ZM7.64935 10.9328L7.44452 10.2363L7.64935 10.9328ZM8.72066 12.0041L8.02415 11.7993L8.72066 12.0041ZM13.9713 17.3905L14.1529 18.0934L13.9713 17.3905ZM17.16 14.0027L17.873 14.1394L17.16 14.0027ZM18.8584 5.14638L18.1454 5.00964L18.8584 5.14638ZM14.507 0.794988L14.3703 0.0819827L14.507 0.794988ZM3.63462 14.9921C3.3511 15.2756 3.3511 15.7353 3.63462 16.0188C3.91814 16.3024 4.37782 16.3024 4.66134 16.0188L3.63462 14.9921ZM6.0303 14.6499C6.31382 14.3664 6.31382 13.9067 6.0303 13.6232C5.74678 13.3396 5.2871 13.3396 5.00358 13.6232L6.0303 14.6499ZM4.3191 18.4145C4.03558 18.698 4.03558 19.1577 4.3191 19.4412C4.60262 19.7248 5.0623 19.7248 5.34582 19.4412L4.3191 18.4145ZM6.71478 18.0723C6.9983 17.7888 6.9983 17.3291 6.71478 17.0456C6.43126 16.762 5.97158 16.762 5.68806 17.0456L6.71478 18.0723ZM0.212226 14.3076C-0.0712942 14.5912 -0.0712942 15.0508 0.212226 15.3344C0.495747 15.6179 0.955425 15.6179 1.23895 15.3344L0.212226 14.3076ZM2.6079 13.9654C2.89142 13.6819 2.89142 13.2222 2.6079 12.9387C2.32438 12.6552 1.86471 12.6552 1.58119 12.9387L2.6079 13.9654ZM18.1454 5.00964L16.447 13.8659L17.873 14.1394L19.5715 5.28312L18.1454 5.00964ZM5.78751 3.20649L14.6438 1.50799L14.3703 0.0819827L5.51402 1.78048L5.78751 3.20649ZM2.96587 5.86371C3.31581 4.50906 4.4179 3.46916 5.78751 3.20649L5.51402 1.78048C3.58883 2.1497 2.04918 3.60697 1.56002 5.50055L2.96587 5.86371ZM7.44452 10.2363C4.78019 11.0198 2.26643 8.57132 2.96587 5.86371L1.56002 5.50055C0.583398 9.28115 4.08953 12.7364 7.85417 11.6293L7.44452 10.2363ZM9.41717 12.2089C9.77197 11.0024 8.65102 9.88146 7.44452 10.2363L7.85417 11.6293C7.95813 11.5987 8.05473 11.6953 8.02415 11.7993L9.41717 12.2089ZM13.7897 16.6876C11.0821 17.387 8.63366 14.8733 9.41717 12.2089L8.02415 11.7993C6.91707 15.5639 10.3723 19.0701 14.1529 18.0934L13.7897 16.6876ZM16.447 13.8659C16.1843 15.2356 15.1444 16.3376 13.7897 16.6876L14.1529 18.0934C16.0465 17.6043 17.5038 16.0646 17.873 14.1394L16.447 13.8659ZM19.5715 5.28312C20.163 2.1985 17.4549 -0.509599 14.3703 0.0819827L14.6438 1.50799C16.7205 1.10971 18.5437 2.93293 18.1454 5.00964L19.5715 5.28312ZM4.66134 16.0188L6.0303 14.6499L5.00358 13.6232L3.63462 14.9921L4.66134 16.0188ZM5.34582 19.4412L6.71478 18.0723L5.68806 17.0456L4.3191 18.4145L5.34582 19.4412ZM1.23895 15.3344L2.6079 13.9654L1.58119 12.9387L0.212226 14.3076L1.23895 15.3344Z" fill="#F2F4F5"/>
</svg>
