<svg width="28" height="28" viewBox="0 0 28 28" fill="none" xmlns="http://www.w3.org/2000/svg">
<path d="M4.08398 12.832V16.332C4.08398 20.7315 4.08398 22.9319 5.45132 24.298C6.81865 25.6642 9.01782 25.6654 13.4173 25.6654H14.584C18.9835 25.6654 21.1838 25.6654 22.55 24.298C23.9162 22.9307 23.9173 20.7315 23.9173 16.332V12.832" stroke="white" stroke-width="1.75"/>
<path d="M11.0838 2.33203H16.9172L17.6778 9.9352C17.7279 10.4483 17.6701 10.9661 17.5081 11.4555C17.3461 11.9449 17.0835 12.395 16.7372 12.7768C16.3908 13.1586 15.9684 13.4637 15.4971 13.6725C15.0258 13.8813 14.516 13.9892 14.0005 13.9892C13.485 13.9892 12.9752 13.8813 12.5039 13.6725C12.0326 13.4637 11.6102 13.1586 11.2638 12.7768C10.9175 12.395 10.6549 11.9449 10.4929 11.4555C10.3309 10.9661 10.2731 10.4483 10.3232 9.9352L11.0838 2.33203Z" stroke="white" stroke-width="1.75"/>
<path d="M3.88568 6.24153C4.09334 5.2032 4.19718 4.68403 4.40834 4.26286C4.62837 3.82424 4.93818 3.43679 5.31765 3.12566C5.69712 2.81452 6.13777 2.58666 6.61101 2.45686C7.06601 2.33203 7.59568 2.33203 8.65501 2.33203H11.084L10.2382 10.7845C10.1935 11.2683 10.0506 11.7378 9.81824 12.1644C9.58584 12.591 9.26882 12.9657 8.88658 13.2655C8.50435 13.5653 8.06495 13.7839 7.59528 13.908C7.12561 14.0321 6.63555 14.0591 6.15511 13.9872C5.67466 13.9153 5.21394 13.7462 4.80115 13.49C4.38836 13.2339 4.03218 12.8963 3.75441 12.4977C3.47665 12.0992 3.28315 11.6481 3.18576 11.1722C3.08837 10.6963 3.08914 10.2055 3.18801 9.72986L3.88568 6.24153ZM24.1157 6.24153C23.908 5.2032 23.8042 4.68403 23.593 4.26286C23.373 3.82424 23.0632 3.43679 22.6837 3.12566C22.3042 2.81452 21.8636 2.58666 21.3903 2.45686C20.9353 2.33203 20.4057 2.33203 19.3463 2.33203H16.9173L17.7632 10.7845C17.8078 11.2683 17.9507 11.7378 18.1831 12.1644C18.4155 12.591 18.7325 12.9657 19.1148 13.2655C19.497 13.5653 19.9364 13.7839 20.4061 13.908C20.8758 14.0321 21.3658 14.0591 21.8463 13.9872C22.3267 13.9153 22.7874 13.7462 23.2002 13.49C23.613 13.2339 23.9692 12.8963 24.2469 12.4977C24.5247 12.0992 24.7182 11.6481 24.8156 11.1722C24.913 10.6963 24.9122 10.2055 24.8133 9.72986L24.1157 6.24153Z" stroke="white" stroke-width="1.75"/>
<path d="M11.084 25.0827V21.5827C11.084 20.4918 11.084 19.947 11.3185 19.541C11.4721 19.275 11.693 19.0541 11.959 18.9005C12.365 18.666 12.9098 18.666 14.0007 18.666C15.0915 18.666 15.6363 18.666 16.0423 18.9005C16.3083 19.0541 16.5292 19.275 16.6828 19.541C16.9173 19.947 16.9173 20.4918 16.9173 21.5827V25.0827" stroke="white" stroke-width="1.75" stroke-linecap="round"/>
</svg>
