<svg width="30" height="30" viewBox="0 0 30 30" fill="none" xmlns="http://www.w3.org/2000/svg">
<path d="M18.75 20.715V23.74C18.7493 24.4057 18.4845 25.0439 18.0137 25.5145C17.5428 25.9852 16.9045 26.2497 16.2388 26.25H6.2625C5.59636 26.25 4.95749 25.9855 4.48634 25.5145C4.01519 25.0436 3.75033 24.4049 3.75 23.7387V13.7625C3.75 13.0964 4.01454 12.4575 4.48545 11.9863C4.95637 11.5152 5.59511 11.2503 6.26125 11.25H9.95375" stroke="#3B74FF" stroke-width="2.5" stroke-linecap="round" stroke-linejoin="round"/>
<path d="M11.4587 5.63945C11.6342 4.98723 12.0613 4.43127 12.6462 4.09357C13.2312 3.75587 13.9262 3.66403 14.5787 3.8382L24.3612 6.45945C25.0135 6.63493 25.5694 7.06199 25.9071 7.64693C26.2448 8.23186 26.3367 8.92688 26.1625 9.57945L23.5412 19.3619C23.3658 20.0142 22.9387 20.5701 22.3538 20.9078C21.7688 21.2455 21.0738 21.3374 20.4212 21.1632L10.6375 18.542C9.98528 18.3665 9.42931 17.9394 9.09162 17.3545C8.75392 16.7695 8.66208 16.0745 8.83625 15.422L11.4587 5.63945Z" fill="#3B74FF" fill-opacity="0.2" stroke="#3B74FF" stroke-width="2.5" stroke-linecap="round" stroke-linejoin="round"/>
</svg>
