<svg width="16" height="16" viewBox="0 0 16 16" fill="none" xmlns="http://www.w3.org/2000/svg">
<path d="M7.82602 15.652C12.1482 15.652 15.652 12.1482 15.652 7.82602C15.652 3.50383 12.1482 0 7.82602 0C3.50383 0 0 3.50383 0 7.82602C0 12.1482 3.50383 15.652 7.82602 15.652Z" fill="url(#paint0_linear_2580_41442)"/>
<path fill-rule="evenodd" clip-rule="evenodd" d="M3.54227 7.74308C5.82372 6.74909 7.34504 6.0938 8.10624 5.77719C10.2796 4.87321 10.7312 4.71618 11.0256 4.71099C11.0903 4.70985 11.2351 4.7259 11.3288 4.80198C11.408 4.86622 11.4298 4.95301 11.4402 5.01392C11.4506 5.07483 11.4636 5.21358 11.4533 5.322C11.3355 6.55948 10.8259 9.56252 10.5666 10.9485C10.4569 11.535 10.2409 11.7316 10.0318 11.7509C9.57733 11.7927 9.23223 11.4505 8.79205 11.162C8.10326 10.7105 7.71413 10.4294 7.04554 9.98881C6.27287 9.47963 6.77376 9.19977 7.2141 8.74241C7.32934 8.62272 9.33176 6.80137 9.37051 6.63614C9.37536 6.61548 9.37986 6.53845 9.3341 6.49778C9.28834 6.45711 9.2208 6.47102 9.17206 6.48208C9.10298 6.49776 8.00263 7.22505 5.871 8.66396C5.55867 8.87843 5.27577 8.98293 5.0223 8.97745C4.74287 8.97141 4.20536 8.81946 3.80578 8.68957C3.31567 8.53025 2.92615 8.44602 2.96007 8.17546C2.97773 8.03453 3.1718 7.89041 3.54227 7.74308Z" fill="#333333"/>
<defs>
<linearGradient id="paint0_linear_2580_41442" x1="782.602" y1="0" x2="782.602" y2="1553.6" gradientUnits="userSpaceOnUse">
<stop stop-color="#2AABEE"/>
<stop offset="1" stop-color="#229ED9"/>
</linearGradient>
</defs>
</svg>
