<svg width="31" height="22" viewBox="0 0 31 22" fill="none" xmlns="http://www.w3.org/2000/svg">
<path opacity="0.2" d="M29.6797 8.1875V16.375C29.6797 16.6464 29.5719 16.9067 29.3799 17.0987C29.188 17.2906 28.9277 17.3984 28.6562 17.3984H25.5859C25.5859 16.5841 25.2625 15.8032 24.6867 15.2274C24.1109 14.6516 23.3299 14.3281 22.5156 14.3281C21.7013 14.3281 20.9204 14.6516 20.3446 15.2274C19.7688 15.8032 19.4453 16.5841 19.4453 17.3984H11.2578C11.2578 16.5841 10.9343 15.8032 10.3585 15.2274C9.78274 14.6516 9.0018 14.3281 8.1875 14.3281C7.3732 14.3281 6.59226 14.6516 6.01646 15.2274C5.44067 15.8032 5.11719 16.5841 5.11719 17.3984H2.04688C1.77544 17.3984 1.51513 17.2906 1.3232 17.0987C1.13126 16.9067 1.02344 16.6464 1.02344 16.375V11.2578H21.4922V8.1875H29.6797Z" fill="white"/>
<path d="M30.6289 7.80371L28.8379 3.32617C28.686 2.94734 28.4238 2.62285 28.0853 2.39476C27.7468 2.16666 27.3476 2.04547 26.9394 2.04688H22.5156V1.02344C22.5156 0.752005 22.4078 0.49169 22.2159 0.299758C22.0239 0.107826 21.7636 0 21.4922 0H2.04688C1.50401 0 0.983379 0.215652 0.599516 0.599516C0.215652 0.983379 0 1.50401 0 2.04688V16.375C0 16.9179 0.215652 17.4385 0.599516 17.8224C0.983379 18.2062 1.50401 18.4219 2.04688 18.4219H4.22168C4.44714 19.3025 4.95927 20.083 5.67733 20.6403C6.39538 21.1977 7.27851 21.5002 8.1875 21.5002C9.09649 21.5002 9.97962 21.1977 10.6977 20.6403C11.4157 20.083 11.9279 19.3025 12.1533 18.4219H18.5498C18.7753 19.3025 19.2874 20.083 20.0054 20.6403C20.7235 21.1977 21.6066 21.5002 22.5156 21.5002C23.4246 21.5002 24.3077 21.1977 25.0258 20.6403C25.7439 20.083 26.256 19.3025 26.4814 18.4219H28.6562C29.1991 18.4219 29.7197 18.2062 30.1036 17.8224C30.4875 17.4385 30.7031 16.9179 30.7031 16.375V8.1875C30.7036 8.05596 30.6784 7.92559 30.6289 7.80371ZM22.5156 4.09375H26.9394L28.1676 7.16406H22.5156V4.09375ZM2.04688 2.04688H20.4688V10.2344H2.04688V2.04688ZM8.1875 19.4453C7.78267 19.4453 7.38692 19.3253 7.05032 19.1004C6.71371 18.8754 6.45136 18.5558 6.29643 18.1817C6.14151 17.8077 6.10098 17.3962 6.17996 16.9991C6.25893 16.6021 6.45388 16.2373 6.74014 15.9511C7.0264 15.6648 7.39112 15.4699 7.78817 15.3909C8.18523 15.3119 8.59679 15.3524 8.97081 15.5074C9.34482 15.6623 9.6645 15.9246 9.88941 16.2613C10.1143 16.5979 10.2344 16.9936 10.2344 17.3984C10.2344 17.9413 10.0187 18.4619 9.63486 18.8458C9.251 19.2297 8.73036 19.4453 8.1875 19.4453ZM18.5498 16.375H12.1533C11.9279 15.4944 11.4157 14.7139 10.6977 14.1566C9.97962 13.5992 9.09649 13.2967 8.1875 13.2967C7.27851 13.2967 6.39538 13.5992 5.67733 14.1566C4.95927 14.7139 4.44714 15.4944 4.22168 16.375H2.04688V12.2812H20.4688V13.8561C19.9981 14.128 19.5861 14.4907 19.2567 14.9231C18.9273 15.3555 18.687 15.849 18.5498 16.375ZM22.5156 19.4453C22.1108 19.4453 21.715 19.3253 21.3784 19.1004C21.0418 18.8754 20.7795 18.5558 20.6246 18.1817C20.4696 17.8077 20.4291 17.3962 20.5081 16.9991C20.5871 16.6021 20.782 16.2373 21.0683 15.9511C21.3545 15.6648 21.7192 15.4699 22.1163 15.3909C22.5134 15.3119 22.9249 15.3524 23.2989 15.5074C23.6729 15.6623 23.9926 15.9246 24.2175 16.2613C24.4425 16.5979 24.5625 16.9936 24.5625 17.3984C24.5625 17.9413 24.3468 18.4619 23.963 18.8458C23.5791 19.2297 23.0585 19.4453 22.5156 19.4453ZM28.6562 16.375H26.4814C26.2533 15.4966 25.7402 14.7186 25.0225 14.163C24.3049 13.6074 23.4232 13.3055 22.5156 13.3047V9.21094H28.6562V16.375Z" fill="white"/>
</svg>
