<svg width="18" height="18" viewBox="0 0 18 18" fill="none" xmlns="http://www.w3.org/2000/svg">
<g clip-path="url(#clip0_2580_41460)">
<path d="M15.2833 5.22138C15.2935 5.36892 15.2935 5.51646 15.2935 5.66536C15.2935 10.2024 11.8396 15.435 5.52391 15.435V15.4322C3.65824 15.435 1.83133 14.9005 0.260742 13.8929C0.532025 13.9256 0.804668 13.9419 1.07799 13.9426C2.6241 13.9439 4.12602 13.4251 5.34237 12.4699C3.87309 12.442 2.58467 11.484 2.13457 10.0854C2.64926 10.1847 3.17959 10.1643 3.68476 10.0263C2.0829 9.70265 0.930451 8.29524 0.930451 6.66074C0.930451 6.64578 0.930451 6.63151 0.930451 6.61723C1.40775 6.88307 1.94215 7.03061 2.4888 7.04693C0.980085 6.03863 0.515028 4.03154 1.4261 2.46231C3.16939 4.60742 5.74148 5.91148 8.50258 6.0495C8.22586 4.85695 8.60389 3.60728 9.49593 2.76895C10.8789 1.46897 13.0539 1.5356 14.3539 2.91785C15.1228 2.76623 15.8599 2.48407 16.5343 2.08428C16.278 2.87909 15.7416 3.55424 15.0249 3.98326C15.7055 3.90304 16.3705 3.72082 16.9967 3.44274C16.5357 4.13352 15.9551 4.73524 15.2833 5.22138Z" fill="#1D9BF0"/>
</g>
<defs>
<clipPath id="clip0_2580_41460">
<rect width="17.3377" height="17.3377" fill="white"/>
</clipPath>
</defs>
</svg>
