<svg width="19" height="19" viewBox="0 0 19 19" fill="none" xmlns="http://www.w3.org/2000/svg">
<g clip-path="url(#clip0_2580_42668)">
<path d="M1.99467 5.6294H17.0047M6.74467 1.67107V5.51857M12.2547 1.67107V5.16232M17.4163 11.8757V7.12565C17.4163 3.16732 15.833 1.58398 11.8747 1.58398H7.12467C3.16634 1.58398 1.58301 3.16732 1.58301 7.12565V11.8757C1.58301 15.834 3.16634 17.4173 7.12467 17.4173H11.8747C15.833 17.4173 17.4163 15.834 17.4163 11.8757Z" stroke="#F5F5F5" stroke-opacity="0.960784" stroke-width="1.5" stroke-linecap="round" stroke-linejoin="round"/>
<path d="M7.71875 11.4396V10.4896C7.71875 9.27043 8.58167 8.77168 9.63458 9.38126L10.4579 9.85626L11.2813 10.3313C12.3342 10.9408 12.3342 11.9383 11.2813 12.5479L10.4579 13.0229L9.63458 13.4979C8.58167 14.1075 7.71875 13.6088 7.71875 12.3896V11.4396Z" stroke="#F5F5F5" stroke-opacity="0.960784" stroke-width="1.5" stroke-miterlimit="10" stroke-linecap="round" stroke-linejoin="round"/>
</g>
<defs>
<clipPath id="clip0_2580_42668">
<rect width="19" height="19" fill="white"/>
</clipPath>
</defs>
</svg>
